Coordinates
version=1
nRows=12
nColumns=24
inDegrees=yes

Units are S.I. units (second, meters, Newtons, ...)
Angles are in degrees.

endheader
time	pelvis_tilt	pelvis_list	pelvis_rotation	pelvis_tx	pelvis_ty	pelvis_tz	hip_flexion_r	hip_adduction_r	hip_rotation_r	knee_angle_r	ankle_angle_r	subtalar_angle_r	mtp_angle_r	hip_flexion_l	hip_adduction_l	hip_rotation_l	knee_angle_l	ankle_angle_l	subtalar_angle_l	mtp_angle_l	lumbar_extension	lumbar_bending	lumbar_rotation
      2.51000000	     24.39261679	     -3.04801008	     -0.40163996	     -0.34071828	      1.03845086	     -0.01400966	     -4.99906371	     -1.89462763	    -12.12555140	    -23.61372373	      6.65857784	     -8.48950547	     32.57003676	    -30.44091669	     -1.98982069	     -8.23041601	     -6.60915266	     14.56879645	     -0.03643293	      1.62982826	    -39.38859982	      0.61670727	      1.54845870
      2.51500000	     24.38063360	     -3.01985460	     -0.40886868	     -0.33579415	      1.03788474	     -0.01359359	     -5.04518825	     -1.77420657	    -12.14081145	    -22.01694980	      6.49434733	     -8.24029085	     32.44484638	    -30.87906266	     -1.96535495	     -8.25487481	     -6.35405271	     14.68244504	      0.07542019	      1.65273438	    -39.40862774	      0.60425786	      1.48548384
      2.52000000	     24.37492341	     -2.98651698	     -0.42125043	     -0.33086272	      1.03728025	     -0.01314246	     -5.11374216	     -1.65742219	    -12.14413062	    -20.40979944	      6.31111289	     -7.96604991	     32.30274653	    -31.31856995	     -1.93456190	     -8.27502384	     -6.11188297	     14.78747381	      0.15646743	      1.68020226	    -39.43462752	      0.58181791	      1.43405993
      2.52500000	     24.36910918	     -2.93911493	     -0.43422933	     -0.32590638	      1.03664371	     -0.01267530	     -5.19693787	     -1.55513398	    -12.14264338	    -18.80167445	      6.10598362	     -7.68500972	     32.11659118	    -31.76392582	     -1.89121082	     -8.26990281	     -5.85819521	     14.90040357	      0.25421746	      1.72105862	    -39.46018123	      0.54803615	      1.37578734
      2.53000000	     24.36160084	     -2.88566249	     -0.45059359	     -0.32094115	      1.03596470	     -0.01218119	     -5.29140618	     -1.45792596	    -12.12879885	    -17.19638654	      5.87937072	     -7.38291510	     31.92356159	    -32.19313788	     -1.84199801	     -8.26950169	     -5.63434882	     14.99431440	      0.31013069	      1.76717504	    -39.48310092	      0.50661322	      1.33111795
      2.53500000	     24.34319741	     -2.81922281	     -0.46447447	     -0.31595395	      1.03524191	     -0.01167020	     -5.38216871	     -1.37557418	    -12.11749974	    -15.61145703	      5.62963507	     -7.07125556	     31.71523177	    -32.60768642	     -1.78431667	     -8.24656280	     -5.41598222	     15.09441892	      0.36437475	      1.82599616	    -39.49336723	      0.45551053	      1.27703307
      2.54000000	     24.33068800	     -2.74093865	     -0.48220923	     -0.31095276	      1.03449170	     -0.01114208	     -5.48491818	     -1.30804471	    -12.10397159	    -14.05622649	      5.36574985	     -6.74624089	     31.49882494	    -33.02440611	     -1.71428315	     -8.21187639	     -5.20656626	     15.18556775	      0.40587480	      1.89578425	    -39.50932761	      0.39273279	      1.22960397
      2.54500000	     24.32775240	     -2.65813095	     -0.48830246	     -0.30591189	      1.03372030	     -0.01061169	     -5.60691323	     -1.24642910	    -12.10883317	    -12.53497245	      5.08928687	     -6.41166184	     31.26368555	    -33.44950887	     -1.64813232	     -8.16335550	     -5.00233846	     15.27977143	      0.45203504	      1.98440945	    -39.53151896	      0.33319706	      1.18259277
      2.55000000	     24.31940924	     -2.56504947	     -0.50012834	     -0.30086082	      1.03290865	     -0.01006136	     -5.71721807	     -1.20030550	    -12.11911425	    -11.07548055	      4.80098893	     -6.06227608	     31.02017152	    -33.85953714	     -1.57141108	     -8.11184462	     -4.81676157	     15.36890783	      0.47943102	      2.08910665	    -39.54681033	      0.26239990	      1.13709639
      2.55500000	     24.29226605	     -2.47456070	     -0.49543605	     -0.29574626	      1.03204610	     -0.00952270	     -5.79404906	     -1.16119861	    -12.20078785	     -9.72548634	      4.73248576	     -5.42049571	     29.12416170	    -34.24170609	     -1.51049636	     -8.05026116	     -4.65030737	     15.43651492	      0.52803672	      3.07860481	    -39.53569474	      0.20574849	      1.09716709
      2.56000000	     24.27981692	     -2.35899541	     -0.51194220	     -0.29068428	      1.03119171	     -0.00892123	     -5.88638897	     -1.13925517	    -12.17650433	     -8.40104446	      4.39353286	     -5.21922925	     29.04184387	    -34.63633308	     -1.41443555	     -7.95451673	     -4.48092019	     15.47214173	      0.49545290	      3.13963334	    -39.54915016	      0.11238101	      1.05445611
      2.56500000	     24.27270256	     -2.25333993	     -0.50306841	     -0.28556360	      1.03032253	     -0.00834297	     -5.97653299	     -1.11415717	    -12.24061392	     -7.17155607	      4.10456942	     -4.87976817	     28.95551129	    -35.01869224	     -1.34672252	     -7.88153425	     -4.35400693	     15.56252913	      0.52125654	      3.24036633	    -39.56162698	      0.04445993	      1.02090838
